<svg width="116" height="57" viewBox="0 0 116 57" fill="none" xmlns="http://www.w3.org/2000/svg">
<path d="M64.5947 7.95938C64.7973 8.9225 64.821 9.91468 64.6647 10.8864C64.3267 16.3014 61.0237 19.7564 56.4777 21.9454C52.4777 23.8724 48.3257 23.3514 44.5387 20.8814C44.2024 20.7064 43.8981 20.4758 43.6387 20.1994C43.4257 20.031 43.2825 19.7899 43.2367 19.5224C42.3917 17.4964 44.0057 17.3744 44.9977 17.7764C47.6977 18.8714 49.5837 17.5414 51.5307 16.1104L52.0037 15.4794C53.0637 12.5794 54.1527 9.68838 55.1667 6.77138C55.2928 6.27667 55.5749 5.83571 55.9711 5.51371C56.3673 5.1917 56.8566 5.00576 57.3667 4.98338H57.5047C60.2557 3.71138 61.9177 4.46938 63.7227 6.48338C64.1274 6.89837 64.4265 7.4046 64.5947 7.95938Z" fill="#333333"/>
<path d="M57.0875 6.53741C57.0216 6.49136 56.9686 6.42917 56.9336 6.35678C56.8986 6.28439 56.8827 6.20424 56.8876 6.12397C56.8924 6.0437 56.9177 5.96602 56.9611 5.89834C57.0045 5.83066 57.0646 5.77525 57.1356 5.73741C58.2305 5.49307 59.2883 5.10504 60.2816 4.58341C61.1446 3.99141 62.1366 3.47341 62.2226 2.10441C62.2636 1.43741 60.6935 0.062409 60.3305 1.41541C60.1045 2.25341 59.7675 2.25941 59.3895 1.85741C59.269 1.71212 59.2069 1.52712 59.2154 1.33852C59.2239 1.14992 59.3024 0.971252 59.4356 0.837409C59.7086 0.555881 60.0386 0.33586 60.4035 0.19204C60.7684 0.0482196 61.1598 -0.0160889 61.5516 0.00340898C62.4166 0.057409 63.4516 0.903409 63.2176 2.84341C63.0797 3.58819 62.9984 4.34235 62.9746 5.09941C62.9262 6.21157 63.1935 7.31472 63.7456 8.28141C63.7484 8.33492 63.7381 8.38831 63.7157 8.43696C63.6932 8.48562 63.6592 8.52808 63.6167 8.56067C63.5742 8.59325 63.5243 8.615 63.4715 8.62401C63.4187 8.63303 63.3645 8.62905 63.3136 8.61241C63.0556 8.28241 63.0486 7.81241 62.2866 7.54041C61.5237 7.40388 60.7373 7.51313 60.0405 7.85241C59.6845 6.71041 59.3276 6.36841 58.1736 6.55241C57.8131 6.60563 57.4464 6.60057 57.0875 6.53741Z" fill="#333333"/>
<path d="M9.58105 50.3081C9.04297 50.5246 8.52035 50.6854 8.01318 50.7905C7.51221 50.8957 6.98958 50.9482 6.44531 50.9482C5.57324 50.9482 4.80013 50.8215 4.12598 50.5679C3.45801 50.3081 2.89209 49.9246 2.42822 49.4175C1.97054 48.9103 1.62109 48.2826 1.37988 47.5342C1.14486 46.7796 1.02734 45.9045 1.02734 44.9087C1.02734 43.8882 1.15723 42.9821 1.41699 42.1904C1.67676 41.3926 2.04785 40.7215 2.53027 40.1772C3.0127 39.6268 3.59717 39.2093 4.28369 38.9248C4.9764 38.6341 5.7526 38.4888 6.6123 38.4888C6.89062 38.4888 7.15039 38.495 7.3916 38.5073C7.639 38.5197 7.88021 38.5444 8.11523 38.5815C8.35026 38.6125 8.58838 38.6558 8.82959 38.7114C9.0708 38.7671 9.32129 38.8382 9.58105 38.9248V41.1885C9.05534 40.9411 8.55436 40.7648 8.07812 40.6597C7.60189 40.5545 7.16895 40.502 6.7793 40.502C6.2041 40.502 5.7124 40.6071 5.3042 40.8174C4.896 41.0215 4.55892 41.3122 4.29297 41.6895C4.0332 42.0605 3.84147 42.5059 3.71777 43.0254C3.59408 43.5387 3.53223 44.1047 3.53223 44.7231C3.53223 45.3787 3.59408 45.9663 3.71777 46.4858C3.84766 46.9992 4.04557 47.4352 4.31152 47.7939C4.57747 48.1527 4.91764 48.4279 5.33203 48.6196C5.74642 48.8052 6.23812 48.8979 6.80713 48.8979C7.01123 48.8979 7.23079 48.8794 7.46582 48.8423C7.70703 48.799 7.94824 48.7464 8.18945 48.6846C8.43685 48.6165 8.67806 48.5392 8.91309 48.4526C9.1543 48.3599 9.37695 48.2671 9.58105 48.1743V50.3081ZM20.4912 45.9941C20.4912 46.7363 20.3861 47.4167 20.1758 48.0352C19.9655 48.6475 19.6624 49.1732 19.2666 49.6123C18.8708 50.0514 18.3853 50.3916 17.8101 50.6328C17.2349 50.874 16.5793 50.9946 15.8433 50.9946C15.1444 50.9946 14.5197 50.8926 13.9692 50.6885C13.4188 50.4844 12.9518 50.1813 12.5684 49.7793C12.1849 49.3711 11.8911 48.8639 11.687 48.2578C11.4829 47.6455 11.3809 46.9342 11.3809 46.124C11.3809 45.3757 11.486 44.6953 11.6963 44.083C11.9128 43.4707 12.2189 42.9481 12.6147 42.5151C13.0168 42.0822 13.5054 41.7482 14.0806 41.5132C14.6558 41.272 15.3052 41.1514 16.0288 41.1514C16.7339 41.1514 17.3617 41.2565 17.9121 41.4668C18.4626 41.6709 18.9295 41.9771 19.313 42.3853C19.6965 42.7935 19.9871 43.3006 20.1851 43.9067C20.3892 44.5067 20.4912 45.2025 20.4912 45.9941ZM18.1348 46.0498C18.1348 45.0726 17.9492 44.3397 17.5781 43.8511C17.2132 43.3563 16.672 43.1089 15.9546 43.1089C15.5588 43.1089 15.2217 43.1862 14.9434 43.3408C14.665 43.4954 14.4362 43.7088 14.2568 43.981C14.0775 44.2469 13.9445 44.5592 13.8579 44.918C13.7775 45.2767 13.7373 45.6602 13.7373 46.0684C13.7373 47.0518 13.9352 47.7939 14.3311 48.2949C14.7269 48.7897 15.2681 49.0371 15.9546 49.0371C16.3319 49.0371 16.6597 48.9629 16.938 48.8145C17.2163 48.6598 17.4421 48.4495 17.6152 48.1836C17.7884 47.9115 17.9183 47.5929 18.0049 47.228C18.0915 46.8631 18.1348 46.4704 18.1348 46.0498ZM27.9966 38.7764C27.9966 38.9805 27.9595 39.1722 27.8853 39.3516C27.811 39.5309 27.7059 39.6886 27.5698 39.8247C27.4399 39.9546 27.2853 40.0597 27.106 40.1401C26.9266 40.2144 26.7318 40.2515 26.5215 40.2515C26.3112 40.2515 26.1133 40.2144 25.9277 40.1401C25.7484 40.0597 25.5907 39.9546 25.4546 39.8247C25.3247 39.6886 25.2227 39.5309 25.1484 39.3516C25.0742 39.1722 25.0371 38.9805 25.0371 38.7764C25.0371 38.5723 25.0742 38.3805 25.1484 38.2012C25.2227 38.0218 25.3247 37.8641 25.4546 37.728C25.5907 37.592 25.7484 37.4868 25.9277 37.4126C26.1133 37.3322 26.3112 37.292 26.5215 37.292C26.7318 37.292 26.9266 37.3322 27.106 37.4126C27.2853 37.4868 27.4399 37.592 27.5698 37.728C27.7059 37.8641 27.811 38.0218 27.8853 38.2012C27.9595 38.3805 27.9966 38.5723 27.9966 38.7764ZM25.4917 43.1182H22.8291V41.3555H27.811V49.0186H30.5293V50.7812H22.5044V49.0186H25.4917V43.1182ZM38.5171 50.7812V44.6396C38.5171 43.6068 38.1336 43.0903 37.3667 43.0903C36.9832 43.0903 36.6152 43.245 36.2627 43.5542C35.9163 43.8634 35.5483 44.284 35.1587 44.8159V50.7812H32.895V41.3555H34.8525L34.9082 42.7471C35.0999 42.5059 35.2979 42.2863 35.502 42.0884C35.7122 41.8905 35.938 41.7235 36.1792 41.5874C36.4204 41.4451 36.6802 41.3369 36.9585 41.2627C37.2368 41.1885 37.5492 41.1514 37.8955 41.1514C38.3779 41.1514 38.7985 41.2318 39.1572 41.3926C39.516 41.5472 39.8159 41.7699 40.0571 42.0605C40.2983 42.3451 40.4777 42.6914 40.5952 43.0996C40.7189 43.5016 40.7808 43.9531 40.7808 44.4541V50.7812H38.5171ZM51.7188 42.5151C51.7188 43.146 51.6136 43.7305 51.4033 44.2686C51.193 44.8005 50.8807 45.2612 50.4663 45.6509C50.0519 46.0405 49.5355 46.3436 48.917 46.5601C48.2985 46.7765 47.5811 46.8848 46.7646 46.8848H45.605V50.7812H43.3042V38.6558H46.8574C47.6429 38.6558 48.3356 38.7424 48.9355 38.9155C49.5417 39.0825 50.0488 39.3299 50.457 39.6577C50.8714 39.9855 51.1838 40.3906 51.394 40.873C51.6105 41.3493 51.7188 41.8966 51.7188 42.5151ZM49.3252 42.6729C49.3252 42.3512 49.2726 42.0605 49.1675 41.8008C49.0685 41.5348 48.9139 41.3091 48.7036 41.1235C48.4995 40.938 48.2397 40.7957 47.9243 40.6968C47.6089 40.5978 47.2347 40.5483 46.8018 40.5483H45.605V44.9922H46.876C47.2718 44.9922 47.6213 44.9396 47.9243 44.8345C48.2274 44.7231 48.481 44.5654 48.6851 44.3613C48.8953 44.1572 49.0531 43.9129 49.1582 43.6284C49.2695 43.3439 49.3252 43.0254 49.3252 42.6729ZM59.6973 50.7812L59.6416 49.5474C59.4437 49.7576 59.2365 49.9525 59.02 50.1318C58.8035 50.305 58.5654 50.4565 58.3057 50.5864C58.0459 50.7163 57.7614 50.8153 57.4521 50.8833C57.1491 50.9575 56.8151 50.9946 56.4502 50.9946C55.9678 50.9946 55.5441 50.9235 55.1792 50.7812C54.8143 50.639 54.5081 50.4411 54.2607 50.1875C54.0133 49.9339 53.8247 49.6278 53.6948 49.269C53.5711 48.9103 53.5093 48.5145 53.5093 48.0815C53.5093 47.6362 53.6021 47.2249 53.7876 46.8477C53.9793 46.4704 54.2669 46.1457 54.6504 45.8735C55.04 45.6014 55.5225 45.388 56.0977 45.2334C56.679 45.0788 57.3594 45.0015 58.1387 45.0015H59.3726V44.4355C59.3726 44.1943 59.3385 43.9779 59.2705 43.7861C59.2025 43.5882 59.0911 43.4212 58.9365 43.2852C58.7881 43.1491 58.5933 43.0439 58.3521 42.9697C58.1108 42.8955 57.814 42.8584 57.4614 42.8584C56.9048 42.8584 56.3543 42.9233 55.8101 43.0532C55.272 43.1769 54.7493 43.3532 54.2422 43.582V41.7729C54.6937 41.5936 55.2132 41.4451 55.8008 41.3276C56.3945 41.2101 57.0099 41.1514 57.647 41.1514C58.3459 41.1514 58.9458 41.2194 59.4468 41.3555C59.9478 41.4854 60.359 41.6833 60.6807 41.9492C61.0085 42.2152 61.2497 42.5492 61.4043 42.9512C61.5589 43.347 61.6362 43.8109 61.6362 44.3428V50.7812H59.6973ZM59.3726 46.6157H57.9902C57.6068 46.6157 57.2821 46.6528 57.0161 46.7271C56.7502 46.8013 56.5337 46.9033 56.3667 47.0332C56.1997 47.1631 56.076 47.3146 55.9956 47.4878C55.9214 47.6548 55.8843 47.8341 55.8843 48.0259C55.8843 48.4093 56.008 48.7031 56.2554 48.9072C56.5028 49.1051 56.8398 49.2041 57.2666 49.2041C57.582 49.2041 57.9098 49.0897 58.25 48.8608C58.5902 48.632 58.9644 48.3042 59.3726 47.8774V46.6157ZM72.7134 45.9014C72.7134 46.7673 72.5897 47.5156 72.3423 48.1465C72.1011 48.7773 71.7609 49.3031 71.3218 49.7236C70.8888 50.138 70.3755 50.4473 69.7817 50.6514C69.188 50.8493 68.5417 50.9482 67.8428 50.9482C67.6077 50.9482 67.3727 50.9328 67.1377 50.9019C66.9027 50.8709 66.6893 50.8307 66.4976 50.7812V54.4644H64.2339V41.3555H66.1914L66.2471 42.7471C66.4388 42.5059 66.6367 42.2863 66.8408 42.0884C67.0511 41.8905 67.2769 41.7235 67.5181 41.5874C67.7593 41.4451 68.019 41.3369 68.2974 41.2627C68.5757 41.1885 68.888 41.1514 69.2344 41.1514C69.791 41.1514 70.2858 41.2627 70.7188 41.4854C71.1517 41.708 71.5135 42.0265 71.8042 42.4409C72.1011 42.8491 72.3268 43.347 72.4814 43.9346C72.6361 44.516 72.7134 45.1715 72.7134 45.9014ZM70.3384 45.9941C70.3384 45.4746 70.3013 45.0324 70.2271 44.6675C70.1528 44.3026 70.0446 44.0026 69.9023 43.7676C69.7663 43.5326 69.5962 43.3625 69.3921 43.2573C69.1942 43.146 68.9653 43.0903 68.7056 43.0903C68.3221 43.0903 67.9541 43.245 67.6016 43.5542C67.2552 43.8634 66.8872 44.284 66.4976 44.8159V48.9351C66.6769 49.0031 66.8965 49.0588 67.1562 49.1021C67.4222 49.1453 67.6912 49.167 67.9634 49.167C68.3221 49.167 68.6468 49.0928 68.9375 48.9443C69.2344 48.7959 69.4849 48.5856 69.689 48.3135C69.8993 48.0413 70.0601 47.7104 70.1714 47.3208C70.2827 46.925 70.3384 46.4827 70.3384 45.9941ZM80.7476 45.02C80.7599 44.6675 80.7414 44.3675 80.6919 44.1201C80.6486 43.8727 80.5744 43.6686 80.4692 43.5078C80.3703 43.347 80.2466 43.2295 80.0981 43.1553C79.9497 43.0811 79.7796 43.0439 79.5879 43.0439C79.2539 43.0439 78.9076 43.1831 78.5488 43.4614C78.1963 43.7336 77.8066 44.1851 77.3799 44.8159V50.7812H75.0605V41.3555H77.1108L77.1943 42.7285C77.349 42.4873 77.5221 42.2708 77.7139 42.0791C77.9118 41.8874 78.1283 41.7235 78.3633 41.5874C78.6045 41.4451 78.8704 41.3369 79.1611 41.2627C79.4518 41.1885 79.7703 41.1514 80.1167 41.1514C80.5929 41.1514 81.0135 41.2349 81.3784 41.4019C81.7495 41.5627 82.0588 41.8039 82.3062 42.1255C82.5597 42.4471 82.7453 42.8522 82.8628 43.3408C82.9865 43.8232 83.0391 44.383 83.0205 45.02H80.7476ZM90.6743 38.7764C90.6743 38.9805 90.6372 39.1722 90.563 39.3516C90.4888 39.5309 90.3836 39.6886 90.2476 39.8247C90.1177 39.9546 89.9631 40.0597 89.7837 40.1401C89.6043 40.2144 89.4095 40.2515 89.1992 40.2515C88.9889 40.2515 88.791 40.2144 88.6055 40.1401C88.4261 40.0597 88.2684 39.9546 88.1323 39.8247C88.0024 39.6886 87.9004 39.5309 87.8262 39.3516C87.752 39.1722 87.7148 38.9805 87.7148 38.7764C87.7148 38.5723 87.752 38.3805 87.8262 38.2012C87.9004 38.0218 88.0024 37.8641 88.1323 37.728C88.2684 37.592 88.4261 37.4868 88.6055 37.4126C88.791 37.3322 88.9889 37.292 89.1992 37.292C89.4095 37.292 89.6043 37.3322 89.7837 37.4126C89.9631 37.4868 90.1177 37.592 90.2476 37.728C90.3836 37.8641 90.4888 38.0218 90.563 38.2012C90.6372 38.3805 90.6743 38.5723 90.6743 38.7764ZM88.1694 43.1182H85.5068V41.3555H90.4888V49.0186H93.207V50.7812H85.1821V49.0186H88.1694V43.1182ZM101.408 50.7812L97.9292 46.0684V50.7812H95.6655V37.6724H97.9292V45.3447L101.223 41.3555H104.052L100.23 45.6509L104.368 50.7812H101.408ZM111.929 50.7812L111.873 49.5474C111.675 49.7576 111.468 49.9525 111.251 50.1318C111.035 50.305 110.797 50.4565 110.537 50.5864C110.277 50.7163 109.993 50.8153 109.684 50.8833C109.381 50.9575 109.047 50.9946 108.682 50.9946C108.199 50.9946 107.776 50.9235 107.411 50.7812C107.046 50.639 106.74 50.4411 106.492 50.1875C106.245 49.9339 106.056 49.6278 105.926 49.269C105.803 48.9103 105.741 48.5145 105.741 48.0815C105.741 47.6362 105.833 47.2249 106.019 46.8477C106.211 46.4704 106.498 46.1457 106.882 45.8735C107.271 45.6014 107.754 45.388 108.329 45.2334C108.91 45.0788 109.591 45.0015 110.37 45.0015H111.604V44.4355C111.604 44.1943 111.57 43.9779 111.502 43.7861C111.434 43.5882 111.323 43.4212 111.168 43.2852C111.02 43.1491 110.825 43.0439 110.583 42.9697C110.342 42.8955 110.045 42.8584 109.693 42.8584C109.136 42.8584 108.586 42.9233 108.042 43.0532C107.503 43.1769 106.981 43.3532 106.474 43.582V41.7729C106.925 41.5936 107.445 41.4451 108.032 41.3276C108.626 41.2101 109.241 41.1514 109.878 41.1514C110.577 41.1514 111.177 41.2194 111.678 41.3555C112.179 41.4854 112.59 41.6833 112.912 41.9492C113.24 42.2152 113.481 42.5492 113.636 42.9512C113.79 43.347 113.868 43.8109 113.868 44.3428V50.7812H111.929ZM111.604 46.6157H110.222C109.838 46.6157 109.514 46.6528 109.248 46.7271C108.982 46.8013 108.765 46.9033 108.598 47.0332C108.431 47.1631 108.307 47.3146 108.227 47.4878C108.153 47.6548 108.116 47.8341 108.116 48.0259C108.116 48.4093 108.239 48.7031 108.487 48.9072C108.734 49.1051 109.071 49.2041 109.498 49.2041C109.813 49.2041 110.141 49.0897 110.481 48.8608C110.822 48.632 111.196 48.3042 111.604 47.8774V46.6157Z" fill="#333333"/>
</svg>
